<svg xmlns="http://www.w3.org/2000/svg" aria-hidden="true" style="position:absolute;width:0;height:0;overflow:hidden"><defs><symbol 
id="antenna" viewBox="0 0 32 32"><path fill="#2e2f42" d="m30.773 22.098-8.443-8.505.937-4.615c.242.094.499.143.759.145h.032a2.16 2.16 0 1 0-2.029-1.42l-.005-.015-4.96.605L8.973.16A.53.53 0 0 0 8.597 0a.536.536 0 0 0-.373.155L6.711 1.659a.53.53 0 0 0 0 .754l.814.825C6.382 5.3 5.709 7.76 5.709 10.377c0 4.106 1.656 7.825 4.336 10.526l-.001-.001a.506.506 0 0 0 .146.098 2.986 2.986 0 0 0-.052.546v6.188h-6.4A2.669 2.669 0 0 0 1.071 30.4v1.067c0 .295.239.533.534.533h24.534a.535.535 0 0 0 .534-.534v-1.067a2.67 2.67 0 0 0-2.667-2.666h-6.4v-2.742a14.784 14.784 0 0 0 10.166-1.502l-.077.039.819.823a.534.534 0 0 0 .377.16.532.532 0 0 0 .373-.155l1.512-1.505a.535.535 0 0 0 0-.754zM23.28 6.233a1.067 1.067 0 1 1 .752 1.822h-.003a1.066 1.066 0 0 1-.746-1.822h-.002zm-1.256 3.505-.599 2.945-1.175-1.182 1.774-1.764zm-.605-.902-1.92 1.909-1.485-1.493 3.405-.415zM24.004 28.8a1.6 1.6 0 0 1 1.6 1.6v.534H2.138V30.4a1.6 1.6 0 0 1 1.6-1.6h20.267zm-7.466-2.134v1.067h-5.334v-1.067h5.334zM11.204 25.6v-4.053c0-1.294 1.197-2.346 2.666-2.346s2.667 1.053 2.667 2.346V25.6h-5.334zm6.4-1.696v-2.357c0-1.882-1.675-3.413-3.733-3.413h-.059c-1.353 0-2.54.707-3.213 1.771l-.009.016a13.816 13.816 0 0 1-3.811-9.549c0-2.314.567-4.496 1.569-6.414l-.036.077 18.602 18.709c-1.823.947-3.98 1.502-6.266 1.502-1.079 0-2.128-.124-3.136-.357l.093.018zm11.289-.683L7.836 2.041l.755-.752 7.935 7.98c.003 0 .006.007.009.009l13.114 13.191-.757.752z" style="fill:var(--color1, #2e2f42)"/><path fill="#4d5ae5" d="M13.876 20.267h-.007a1.6 1.6 0 0 0-.003 3.2h.007a1.6 1.6 0 0 0 .003-3.2zm.373 1.978a.534.534 0 0 1-.91-.379v-.002a.533.533 0 0 1 .53-.53.535.535 0 0 1 .374.912h.005z" style="fill:var(--color2, #4d5ae5)"/></symbol><symbol 
id="clock" viewBox="0 0 32 32"><path fill="#2e2f42" d="M31.297 15.301C31.295 6.849 24.442-.002 15.989 0S.686 6.855.688 15.308C.69 22.096 5.11 27.851 11.229 29.853l.108.031a.67.67 0 0 0 .529-.064.642.642 0 0 0 .284-.357l3.865-12.25a1.913 1.913 0 1 0-.851-3.63l.011-.005-5.106-5.107a.637.637 0 1 0-.902.902l5.104 5.109a1.873 1.873 0 0 0 .532 2.306l.004.003-3.683 11.673C3.846 25.783.119 17.71 2.801 10.432 5.482 3.155 13.556-.573 20.833 2.109s11.004 10.755 8.323 18.032c-1.345 3.581-4.004 6.406-7.374 7.938l-.088.036-.398-1.875a.638.638 0 0 0-1.049-.343l.001-.001-3.837 3.425a.639.639 0 0 0 .227 1.084l.005.001 4.899 1.564a.637.637 0 0 0 .818-.743l.001.004-.391-1.839c5.528-2.374 9.329-7.772 9.329-14.057v-.034.002zm-15.305-.637a.638.638 0 0 1 0 1.276.638.638 0 0 1 0-1.276zm2.101 14.863 2.184-1.948.603 2.84-2.787-.892z" style="fill:var(--color1, #2e2f42)"/><path fill="#4d5ae5" d="M15.354 3.185V4.46a.638.638 0 1 0 1.275 0V3.185a.639.639 0 0 0-1.274-.002v.001zM3.876 14.664a.637.637 0 1 0 .001 1.274h1.275a.638.638 0 1 0 0-1.274H3.877zm24.232 1.275a.637.637 0 1 0 0-1.274h-1.275a.639.639 0 0 0-.002 1.274H28.107z" style="fill:var(--color2, #4d5ae5)"/></symbol><symbol 
id="diagram" viewBox="0 0 32 32"><path fill="#4d5ae5" d="M14.925 14.965h1.066v4.797h-1.066v-4.797zm4.265 2.132h1.066v2.665H19.19v-2.665zm-8.529 1.599h1.066v1.066h-1.066v-1.066zm-3.198-.533h1.066v1.599H7.463v-1.599z" style="fill:var(--color2, #4d5ae5)"/><path fill="#2e2f42" d="M1.599 28.291h25.587a1.6 1.6 0 0 0 1.599-1.599v-2.133a1.6 1.6 0 0 0-1.599-1.599h-.534V9.667l3.028-2.868a1.608 1.608 0 1 0-.742-.753l-.004-.01-2.282 2.163v-1.23a1.6 1.6 0 0 0-1.599-1.599H3.73a1.6 1.6 0 0 0-1.599 1.599V22.961h-.533A1.6 1.6 0 0 0-.001 24.56v2.134a1.6 1.6 0 0 0 1.599 1.599zM30.384 4.837a.533.533 0 0 1 0 1.066.533.533 0 0 1 0-1.066zM3.199 6.969c0-.295.239-.534.533-.534h21.322c.294 0 .533.239.533.534v2.238l-1.066 1.013V8.035a.532.532 0 0 0-.533-.533H4.798a.533.533 0 0 0-.533.533v13.326c0 .295.239.534.533.534h19.19a.534.534 0 0 0 .533-.534v-9.674l1.066-1.01V22.96H3.199V6.969zm4.797 6.93h-.005a1.6 1.6 0 1 0 1.112 2.748l1.853.93a.532.532 0 0 0 .636-.123l3.938-4.431 3.872 2.902a.532.532 0 0 0 .686-.04l3.365-3.188v8.131H5.33V8.568h18.124v2.66L19.682 14.8l-3.905-2.928a.531.531 0 0 0-.717.072v.001l-3.993 4.493-1.493-.746c.011-.064.018-.129.021-.194a1.6 1.6 0 0 0-1.599-1.599zm.533 1.599a.533.533 0 0 1-1.066 0 .533.533 0 0 1 1.066 0zm3.198 8.528h5.331v.533a.533.533 0 0 1-.533.533h-4.264a.533.533 0 0 1-.533-.533v-.533zm-10.661.534c0-.294.239-.533.533-.533h9.062v.533a1.6 1.6 0 0 0 1.599 1.599h4.265a1.6 1.6 0 0 0 1.599-1.599v-.534h9.061c.295 0 .534.238.534.533v2.133a.534.534 0 0 1-.534.533H1.599a.533.533 0 0 1-.533-.533v-2.133z" style="fill:var(--color1, #2e2f42)"/></symbol><symbol 

id="facebook" viewBox="0 0 32 32"><path fill="#f4f4fd" d="M21.33 5.314h2.92V.226A36.551 36.551 0 0 0 20.125 0h-.138.007C15.782 0 12.9 2.65 12.9 7.52V12H8.25v5.688h4.648V32h5.698V17.69h4.46l.708-5.69h-5.17V8.08c.002-1.644.444-2.768 2.736-2.768z" style="fill:var(--color3, #f4f4fd)"/></symbol>
<symbol id="close-x" viewBox="0 0 32 32">
<path d="M32 3.223l-3.223-3.223-12.777 12.777-12.777-12.777-3.223 3.223 12.777 12.777-12.777 12.777 3.223 3.223 12.777-12.777 12.777 12.777 3.223-3.223-12.777-12.777 12.777-12.777z"></path>
</symbol>
<symbol 
id="instagram" viewBox="0 0 32 32"><path fill="#f4f4fd" d="M31.968 9.408c-.074-1.7-.35-2.87-.744-3.882a7.844 7.844 0 0 0-1.849-2.839l-.001-.001A7.898 7.898 0 0 0 26.596.862l-.054-.018c-1.02-.394-2.18-.67-3.88-.744C20.946.02 20.4 0 16.06 0c-4.346 0-4.89.02-6.596.094-1.7.074-2.868.35-3.88.744a7.844 7.844 0 0 0-2.839 1.849l-.001.001A7.89 7.89 0 0 0 .918 5.466L.9 5.52C.506 6.54.232 7.7.156 9.4c-.08 1.714-.1 2.26-.1 6.602 0 4.346.02 4.89.094 6.596.074 1.7.35 2.87.744 3.882a7.886 7.886 0 0 0 1.85 2.838c.8.812 1.77 1.444 2.832 1.844 1.02.394 2.18.67 3.882.744 1.706.076 2.25.094 6.596.094 4.344 0 4.888-.02 6.594-.094 1.7-.074 2.87-.35 3.882-.744a8.233 8.233 0 0 0 4.663-4.627l.019-.055c.394-1.02.67-2.18.744-3.882.076-1.706.094-2.25.094-6.596 0-4.344-.006-4.888-.08-6.594zm-2.88 13.064c-.07 1.564-.332 2.408-.552 2.97a5.34 5.34 0 0 1-3.002 3.027l-.036.013c-.562.218-1.412.48-2.968.548-1.688.076-2.194.094-6.464.094s-4.782-.02-6.464-.094c-1.564-.068-2.408-.33-2.97-.55a4.947 4.947 0 0 1-1.837-1.193l-.001-.001a5.001 5.001 0 0 1-1.183-1.804l-.011-.034c-.22-.562-.48-1.412-.55-2.968-.074-1.688-.094-2.196-.094-6.464 0-4.27.02-4.782.094-6.464.07-1.564.332-2.408.55-2.97a4.888 4.888 0 0 1 1.2-1.838A4.96 4.96 0 0 1 6.64 3.55c.56-.22 1.412-.48 2.968-.55 1.688-.074 2.194-.094 6.464-.094 4.276 0 4.78.02 6.464.094 1.562.07 2.406.332 2.968.55a4.929 4.929 0 0 1 1.84 1.194 4.98 4.98 0 0 1 1.192 1.84c.22.56.482 1.41.55 2.968.076 1.688.094 2.194.094 6.464s-.018 4.77-.092 6.456z" style="fill:var(--color3, #f4f4fd)"/><path fill="#f4f4fd" d="M16.06 7.782a8.222 8.222 0 0 0-.01 16.44h.009a8.222 8.222 0 0 0 .01-16.44h-.009zm0 13.554a5.334 5.334 0 1 1 0-10.668 5.334 5.334 0 1 1 0 10.668zM26.524 7.458a1.92 1.92 0 0 1-3.84 0 1.92 1.92 0 0 1 3.84 0z" style="fill:var(--color3, #f4f4fd)"/></symbol><symbol 

id="linkedin" viewBox="0 0 32 32"><path fill="#f4f4fd" d="M31.992 32H32V20.26c0-5.74-1.236-10.164-7.948-10.164-3.226 0-5.392 1.772-6.276 3.45h-.094v-2.912H11.32V32h6.628V21.42c0-2.784.528-5.476 3.976-5.476 3.4 0 3.45 3.178 3.45 5.656V32h6.62zM.528 10.636h6.634V32H.528V10.636zM3.842 0C1.722 0 .002 1.72.002 3.84s1.72 3.88 3.84 3.88c2.122 0 3.844-1.76 3.844-3.88S5.96 0 3.84 0z" style="fill:var(--color3, #f4f4fd)"/></symbol><symbol 

id="support2" viewBox="0 0 25 32"><path d="M10.532 1.806c.142 0 .294.013.446.026l.044.004.045.003c.762.055 1.506.172 2.134.326V.403l.09.02a13 13 0 0 0-2.339-.378 18.093 18.093 0 0 0-.91-.044h-.267a17.862 17.862 0 0 0-4.51.582l-.127.028A17.91 17.91 0 0 0 .473 2.532v17.475l-.1.051a19.358 19.358 0 0 1 4.666-1.83l-.139.031a19.906 19.906 0 0 1 3.971-.619h.052c.217-.011.433-.017.655-.018v-1.79h-.014c-1.766.023-3.479.263-4.967.661a23.81 23.81 0 0 0-1.731.513l-.623.212V3.592l.266-.128-.104.045a17.335 17.335 0 0 1 6.576-1.696H8.98l.029-.001.028.001c.247-.012.497-.018.741-.018h.28c.129.003.258.006.388.014h.084zm3.101 1.801c.391.03.796.044 1.205.044a19.413 19.413 0 0 0 4.881-.639l-.135.03a19.492 19.492 0 0 0 4.665-1.831l-.101.051v17.163a17.972 17.972 0 0 1-4.664 1.921l-.127.028a17.962 17.962 0 0 1-4.511.581h-.115c-1.177 0-2.319-.147-3.409-.425l.095.021V3.276c.265.062.537.118.814.164.455.077.934.133 1.401.167zm8.734.133-.623.209c-.572.193-1.151.365-1.731.518-1.551.415-3.332.657-5.169.663h-.004c-.406 0-.78-.011-1.141-.034l-.497-.033V19.08l.426.037c.395.035.803.052 1.214.052a16.554 16.554 0 0 0 4.189-.553l-.116.026a16.96 16.96 0 0 0 3.285-1.189l-.102.044.266-.128V3.739zM1.684 25.977a.916.916 0 0 0-.661-.281l-.034.001h.002-.014c-.139 0-.272.028-.393.078l.007-.003a.904.904 0 0 0-.51.512l-.002.006a1.001 1.001 0 0 0-.071.386v2.335c-.006.164.026.328.092.479.055.12.135.226.234.313a.824.824 0 0 0 .32.166c.114.031.231.048.349.048a.985.985 0 0 0 .968-.982v-.261H1.36v.222c0 .07-.013.136-.037.198l.001-.004a.38.38 0 0 1-.089.132.426.426 0 0 1-.255.089.308.308 0 0 1-.286-.125l-.001-.001a.548.548 0 0 1-.082-.289l.001-.024v.001-2.177a.74.74 0 0 1 .075-.349.31.31 0 0 1 .262-.143l.038.002H.986h.012c.107 0 .201.052.26.131l.001.001a.493.493 0 0 1 .101.3v.014-.001.202h.604v-.249c0-.143-.027-.28-.077-.405l.003.007a.955.955 0 0 0-.205-.329zm3.626-.026a1.051 1.051 0 0 0-1.058-.191.965.965 0 0 0-.557.511l-.002.006a1.08 1.08 0 0 0-.089.452v2.239c-.004.158.026.314.089.458a.888.888 0 0 0 .236.313.964.964 0 0 0 .322.197 1.049 1.049 0 0 0 1.059-.198l-.001.001a.948.948 0 0 0 .23-.313c.063-.144.093-.301.089-.458v-2.259c0-.156-.033-.305-.092-.439l.003.007a1.016 1.016 0 0 0-.23-.327zm-.285 3.018.002.035a.398.398 0 0 1-.123.289.446.446 0 0 1-.575 0l.001.001a.398.398 0 0 1-.121-.326v.002-2.239l-.001-.034a.4.4 0 0 1 .123-.289.446.446 0 0 1 .575 0l-.001-.001a.398.398 0 0 1 .121.326v-.002 2.24zm5.047 1v-4.24h-.586l-.771 2.244h-.01l-.777-2.244h-.58v4.239h.606V27.39h.011l.593 1.823h.302l.598-1.823h.01v2.578h.606zm3.441-3.942a.834.834 0 0 0-.342-.232 1.31 1.31 0 0 0-.416-.066h-.024.001-.9v4.24h.604v-1.656h.311c.189.009.376-.031.545-.116a.88.88 0 0 0 .329-.32l.002-.004a1 1 0 0 0 .138-.369c.021-.133.033-.287.033-.444v-.04.002a2.426 2.426 0 0 0-.059-.606.906.906 0 0 0-.223-.39zm-.312 1.292a.538.538 0 0 1-.057.224l.001-.003a.342.342 0 0 1-.154.147l-.002.001a.617.617 0 0 1-.254.054l-.033-.001h.002-.276V26.3h.311l.029-.001c.088 0 .172.02.247.055l-.004-.002a.35.35 0 0 1 .141.154l.001.002a.62.62 0 0 1 .053.236v.282c0 .098.006.201 0 .291H13.2zm3.173-1.59h-.495l-.934 4.24h.604l.177-.911h.823l.178.911h.604l-.958-4.24zm-.557 2.752.297-1.537h.011l.295 1.537h-.604zm4.46-.198h-.011l-.912-2.554h-.581v4.24h.604v-2.55h.012l.923 2.549h.568v-4.239h-.604v2.554zm3.691-2.554-.486 1.686h-.012l-.486-1.686h-.639l.83 2.448v1.791h.604v-1.791l.83-2.447h-.64zM0 31.166h.291v.817h.198v-.817h.289v-.167H0v.168zm2.447-.168-.382.985h.21l.081-.224h.392l.084.224h.215l-.391-.985h-.21zm-.03.595.134-.365.134.365h-.268zm2.449.027h.228v.127a.378.378 0 0 1-.234.083h-.014a.25.25 0 0 1-.195-.094.406.406 0 0 1-.073-.234l.001-.023v.001c0-.219.095-.329.283-.329l.021-.001c.097 0 .178.067.201.157v.001l.194-.038c-.042-.192-.18-.289-.417-.289h-.013a.492.492 0 0 0-.331.127.48.48 0 0 0-.141.38v-.002.023c0 .132.048.254.127.347l-.001-.001c.087.09.209.146.343.146L4.877 32h-.001.016c.155 0 .296-.06.402-.157v-.388h-.426v.166zm2.471-.622h-.199v.985h.689v-.167h-.49v-.817zm2.089 0h-.199v.985h.199v-.985zm2.043.657-.404-.657h-.193v.985h.185v-.643l.396.643h.198v-.985h-.182v.658zm1.846-.106h.49v-.167h-.49v-.215h.527v-.168h-.727v.985h.747v-.167h-.548v-.266zm4.477-.163h-.388v-.388h-.197v.984h.197v-.431h.388v.431h.198v-.985h-.198v.388zm1.857.163h.492v-.167h-.492v-.215h.529v-.168h-.726v.985h.746v-.167h-.548v-.266zm2.519.001c.171-.027.258-.118.258-.274a.23.23 0 0 0-.096-.219h-.001a.555.555 0 0 0-.25-.059l-.04.001h.002-.417v.984h.198v-.412h.055c.039 0 .076.008.109.023l-.002-.001a.201.201 0 0 1 .07.072l.215.313h.236l-.12-.192a.704.704 0 0 0-.215-.235l-.002-.002zm-.199-.137h-.146v-.247h.156a.515.515 0 0 1 .205.024l-.004-.001a.13.13 0 0 1-.009.2.537.537 0 0 1-.164.025l-.039-.001h.002zm2.099.136h.49v-.167h-.49v-.215h.529v-.168h-.729v.985h.747v-.167h-.548v-.266z"/></symbol><symbol 

id="support3" viewBox="0 0 34 32"><path d="M5.315 31.394c.013 0 .025.003.036.008.012.004.022.01.031.018l.172.162a1.416 1.416 0 0 1-.474.304l-.01.003a1.91 1.91 0 0 1-.688.11h-.036c-.219 0-.429-.038-.624-.107l.013.004a1.426 1.426 0 0 1-.487-.291l.001.001a1.295 1.295 0 0 1-.311-.441l-.003-.008a1.444 1.444 0 0 1-.11-.559v-.018.001-.019c0-.203.044-.395.122-.568l-.003.009c.075-.167.189-.32.334-.449.146-.125.318-.225.506-.29l.011-.003c.192-.065.414-.103.644-.103h.023-.001a1.84 1.84 0 0 1 .618.094c.171.064.328.151.464.26l-.144.173a.134.134 0 0 1-.036.031h-.001a.094.094 0 0 1-.05.014h-.009a.133.133 0 0 1-.063-.019h.001l-.078-.046-.107-.059a1.2 1.2 0 0 0-.333-.103l-.007-.001a1.438 1.438 0 0 0-.235-.018h-.023.001-.017c-.165 0-.324.028-.471.08l.01-.003c-.145.05-.269.124-.376.218l.001-.001c-.108.101-.19.219-.244.347-.056.13-.088.282-.088.441v.016-.001.017c0 .161.032.314.091.454l-.003-.008a.992.992 0 0 0 .59.556l.007.002c.14.05.291.075.443.073.088.002.176-.004.263-.015.219-.022.414-.108.571-.239l-.002.001a.137.137 0 0 1 .082-.03zm4.976-.815c.003.195-.037.39-.116.573a1.26 1.26 0 0 1-.323.444l-.001.001a1.506 1.506 0 0 1-.509.291 2.151 2.151 0 0 1-1.325-.004l.015.004a1.524 1.524 0 0 1-.509-.294l.002.002a1.311 1.311 0 0 1-.324-.441l-.003-.008a1.468 1.468 0 0 1 .003-1.157l-.004.01c.073-.167.185-.32.328-.451.144-.123.317-.219.507-.281.421-.14.888-.14 1.31 0a1.5 1.5 0 0 1 .508.293c.272.243.442.594.442.985v.036-.002zm-.452 0a1.176 1.176 0 0 0-.081-.46.952.952 0 0 0-.588-.559l-.007-.002a1.539 1.539 0 0 0-.963.003l.011-.003a1.038 1.038 0 0 0-.365.218l.001-.001a.925.925 0 0 0-.23.337l-.002.006c-.109.3-.109.621 0 .921a.935.935 0 0 0 .233.344c.101.094.226.168.365.215.307.098.645.098.952 0 .138-.048.263-.122.364-.215a.962.962 0 0 0 .231-.344c.058-.148.086-.304.081-.46zm3.848.484.044.103a2.5 2.5 0 0 1 .106-.204l1.101-1.709c.022-.03.041-.048.062-.055a.283.283 0 0 1 .074-.009h.018-.001.325v2.781h-.386v-2.131a.683.683 0 0 1 0-.098v.002l-1.107 1.733a.155.155 0 0 1-.064.063h-.001a.191.191 0 0 1-.093.023H13.7a.199.199 0 0 1-.094-.024h.001a.16.16 0 0 1-.064-.062v-.001l-1.139-1.745v2.232h-.373v-2.775h.339c.027 0 .053.004.078.01h-.002a.123.123 0 0 1 .06.052v.001l1.124 1.712a.585.585 0 0 1 .057.1zm4.143-.139v1.041h-.431v-2.777h.96c.182-.003.363.017.537.061.14.034.268.092.379.172a.729.729 0 0 1 .214.269l.002.004a.81.81 0 0 1 .073.355v.012a.773.773 0 0 1-.31.619l-.002.001a1.09 1.09 0 0 1-.375.182l-.008.002a1.877 1.877 0 0 1-.518.064l-.521-.008zm0-.298h.521c.113.001.226-.013.333-.043a.716.716 0 0 0 .244-.121l-.002.001a.525.525 0 0 0 .198-.411v-.007l.001-.028a.453.453 0 0 0-.046-.201l.001.003a.527.527 0 0 0-.15-.189l-.001-.001a.929.929 0 0 0-.582-.149h.003-.521v1.145zm5.791 1.344H23.274a.169.169 0 0 1-.089-.026h.001a.17.17 0 0 1-.056-.063v-.001l-.293-.672h-1.472l-.304.671a.153.153 0 0 1-.053.062h-.001a.161.161 0 0 1-.092.028H20.57l1.293-2.781h.448l1.31 2.781zm-2.133-1.033h1.215l-.513-1.132a1.598 1.598 0 0 1-.094-.249l-.003-.013-.049.145a1.664 1.664 0 0 1-.047.117l-.509 1.132zm3.995-1.736a.185.185 0 0 1 .064.05l1.886 2.096v-2.159h.386v2.781h-.224a.222.222 0 0 1-.082-.016l.001.001a.256.256 0 0 1-.069-.052l-1.883-2.095a.683.683 0 0 1 0 .098v-.002 2.067h-.386v-2.781h.228a.206.206 0 0 1 .078.012zm5.51 1.663v1.104h-.431v-1.104l-1.191-1.675h.396c.031 0 .059.009.084.024h-.001a.261.261 0 0 1 .058.062l.745 1.081c.051.071.095.152.129.239l.003.007.056-.119a1.07 1.07 0 0 1 .073-.127l.735-1.088a.281.281 0 0 1 .055-.059h.001a.146.146 0 0 1 .085-.027h.398l-1.194 1.683zm-17.519-6.343c.187.02.377.037.569.052 2.907-1.111 5.366-2.929 7.07-5.229s2.577-4.975 2.51-7.696L20.42 8.911c.651 2.896.347 5.89-.88 8.648-1.227 2.756-3.327 5.167-6.066 6.962z" /><path  d="m12.329 24.393.086.015c2.927-1.789 5.159-4.286 6.406-7.17s1.454-6.021.592-9.006l-4.564-3.899c1.846 3.205 2.589 6.791 2.142 10.341s-2.064 6.922-4.663 9.719zm15.476-9.531c-.775 2.989-2.658 5.685-5.369 7.688a16.877 16.877 0 0 1-2.453 1.519l-.098.045c2.207-.554 4.236-1.534 5.93-2.864s3.008-2.975 3.84-4.808l-1.85-1.58z" /><path  d="m27.079 14.422-2.635-2.251c-.051 2.567-.905 5.075-2.473 7.264s-3.796 3.98-6.448 5.185h.013c.591 0 1.182-.03 1.769-.09 2.48-.865 4.67-2.24 6.375-4.004s2.874-3.861 3.4-6.103zM12.711 2.69 9.569 0c-2.81.928-5.227 2.558-6.934 4.68C.927 6.801.008 9.311 0 11.886c.01 2.843 1.131 5.604 3.184 7.842s4.92 3.828 8.15 4.518c2.883-3.001 4.571-6.71 4.819-10.587s-.958-7.719-3.442-10.971zm21.63 11.318c-.012-3.375-1.585-6.608-4.379-8.994-2.792-2.386-6.576-3.731-10.526-3.741h-.034c-1.896 0-3.719.31-5.422.883l.12-.035 19.245 16.443c.627-1.338.993-2.905.995-4.557v-.001z"/></symbol><symbol 

id="support4" viewBox="0 0 66 32"><path d="M10.207 9.77h-.002c-1.861 0-3.372 1.361-3.372 3.039v.002c0 1.678 1.51 3.039 3.372 3.039h.002c1.862 0 3.372-1.36 3.372-3.039v-.002c0-1.678-1.509-3.039-3.372-3.039zm24.885-.972c-.005-2.331-1.034-4.566-2.863-6.216C30.4.934 27.922.005 25.335-.001c-2.587.004-5.066.933-6.896 2.582s-2.86 3.885-2.864 6.217v12.858S35.09 19.697 35.091 8.801v-.002zM0 25.876c.005 1.623.721 3.177 1.993 4.325S4.99 31.995 6.789 32c1.799-.005 3.523-.651 4.795-1.798s1.989-2.701 1.994-4.324v-8.945S-.001 18.296-.001 25.877zm6.789 1.603c-.351 0-.695-.094-.988-.27a1.664 1.664 0 0 1-.651-.71l-.004-.01a1.443 1.443 0 0 1-.099-.935l-.002.01c.077-.329.249-.61.485-.82l.002-.001c.247-.22.557-.376.9-.437l.011-.002c.344-.062.702-.03 1.027.091s.603.326.798.59.3.574.3.891c.001.211-.044.421-.133.616s-.22.372-.385.522a1.804 1.804 0 0 1-.565.345l-.012.004a1.904 1.904 0 0 1-.68.123h-.002v-.006zm12.418-2.882v3.33h-.686v-3.33h.686zm1.327 1.422v.535H19.02v-.535h1.514zm.159-1.422v.537H19.02v-.537h1.673zm3.133 1.587v.158c0 .254-.034.481-.103.681-.066.199-.165.37-.292.517l.002-.002a1.27 1.27 0 0 1-.448.322 1.398 1.398 0 0 1-.554.112h-.022.001c-.208 0-.4-.037-.574-.112a1.29 1.29 0 0 1-.447-.321l-.001-.001a1.496 1.496 0 0 1-.292-.505l-.003-.011a2.071 2.071 0 0 1-.103-.651v-.032.002-.158c0-.254.034-.482.103-.681.066-.198.165-.37.292-.516l-.002.002c.126-.142.276-.25.448-.325.174-.075.365-.112.574-.112.211 0 .402.037.574.112.174.075.323.183.448.325.126.142.224.313.293.515.07.199.105.426.105.681zm-.693.157v-.162c0-.176-.016-.332-.048-.466a1.029 1.029 0 0 0-.144-.342l.002.004a.61.61 0 0 0-.225-.204l-.003-.002a.651.651 0 0 0-.295-.07h-.015.001a.65.65 0 0 0-.308.07.624.624 0 0 0-.225.204l-.001.002c-.063.097-.111.21-.138.332l-.001.007a1.99 1.99 0 0 0-.048.437v.031-.002.162c0 .176.016.331.048.467.032.134.08.247.142.341.062.091.139.161.229.208s.193.071.308.071a.658.658 0 0 0 .309-.07.62.62 0 0 0 .225-.206l.001-.002c.061-.094.108-.207.14-.341.03-.132.048-.283.048-.439v-.029.002zm2.92.714v-.007a.45.45 0 0 0-.028-.156l.001.003a.304.304 0 0 0-.095-.132h-.001a.828.828 0 0 0-.194-.119l-.005-.002a2.627 2.627 0 0 0-.312-.118l-.02-.005a4.292 4.292 0 0 1-.456-.175l.026.011a1.776 1.776 0 0 1-.361-.215l.004.003a.95.95 0 0 1-.239-.282l-.003-.005a.78.78 0 0 1-.088-.361v-.017.001-.011c0-.134.034-.26.093-.371l-.002.004a.873.873 0 0 1 .256-.293c.109-.083.24-.146.389-.19.151-.044.316-.066.496-.066.245 0 .46.044.642.133s.325.21.425.364c.101.154.153.33.153.528h-.681v-.012a.512.512 0 0 0-.063-.247l.001.003a.422.422 0 0 0-.18-.175l-.002-.001a.64.64 0 0 0-.283-.064h-.025.001-.023a.694.694 0 0 0-.278.057l.005-.002a.401.401 0 0 0-.179.143l-.001.001a.348.348 0 0 0-.059.195v.007c0 .056.013.108.041.153a.465.465 0 0 0 .127.127l.002.001c.056.04.125.077.208.112s.178.069.286.103c.182.055.341.116.478.185s.254.145.347.231c.094.086.163.182.211.29s.07.231.07.368l.001.032c0 .265-.129.5-.328.645l-.002.002c-.106.079-.234.139-.382.18s-.313.062-.496.062c-.164 0-.327-.022-.487-.065a1.49 1.49 0 0 1-.442-.202l.005.003a1.01 1.01 0 0 1-.308-.333l-.003-.005a.97.97 0 0 1-.116-.487h.688c0 .104.016.191.048.263.031.07.077.128.134.173l.001.001c.06.044.13.077.207.095l.004.001c.082.02.172.03.269.03h.026a.724.724 0 0 0 .272-.052l-.005.002a.362.362 0 0 0 .229-.336v-.005zm2.641-2.458v3.33h-.684v-3.33h.684zm1.025 0v.537h-2.716v-.537h2.716zm2.624 2.794v.535h-1.772v-.535h1.772zm-1.547-2.794v3.33h-.687v-3.33h.687zm1.316 1.356v.521h-1.541v-.521h1.541zm.229-1.356v.537h-1.77v-.537h1.77zm.403 0h1.241a1.7 1.7 0 0 1 .656.114c.185.076.326.19.425.339s.148.333.148.551c0 .179-.03.332-.091.46a.854.854 0 0 1-.252.316l-.002.001a1.316 1.316 0 0 1-.372.199l-.009.003-.217.115h-1.079l-.005-.535H34.012a.632.632 0 0 0 .281-.066l-.004.002a.431.431 0 0 0 .178-.176l.001-.002a.541.541 0 0 0 .062-.253v-.013.001-.015a.603.603 0 0 0-.061-.265l.002.004a.403.403 0 0 0-.179-.177l-.002-.001a.653.653 0 0 0-.283-.063h-.023.001-.556v2.793h-.685v-3.33zm1.861 3.33-.759-1.485.724-.005.769 1.457v.031h-.734zm3.601-1.187h-.848v-.535h.848l.027.001a.702.702 0 0 0 .297-.066l-.004.002a.412.412 0 0 0 .179-.181l.001-.002a.676.676 0 0 0-.001-.544l.002.004a.463.463 0 0 0-.178-.205l-.002-.001a.59.59 0 0 0-.295-.079l-.026.001h.001-.611v2.793h-.685v-3.33h1.296c.261 0 .484.047.671.142.187.093.33.222.429.386s.148.353.148.564c0 .215-.049.401-.148.558s-.242.279-.429.364c-.187.086-.41.128-.671.128zm3.956.651v.535H40.39v-.535h1.772zm-1.548-2.794v3.33h-.687v-3.33h.687zm1.317 1.356v.521H40.39v-.521h1.541zm.229-1.356v.537h-1.769v-.537h1.77zm1.936 0v3.33h-.683v-3.33h.684zm1.025 0v.537h-2.716v-.537h2.716zm2.625 2.794v.535h-1.772v-.535h1.772zm-1.548-2.794v3.33h-.686v-3.33h.686zm1.317 1.356v.521h-1.541v-.521h1.541zm.228-1.356v.537h-1.769v-.537h1.769zm.403 0h1.241c.255 0 .474.038.657.114s.326.19.425.339a.982.982 0 0 1 .148.551c0 .179-.031.332-.091.46s-.146.234-.252.316l-.002.001a1.308 1.308 0 0 1-.373.199l-.009.003-.217.115h-1.079l-.005-.535H49.414a.632.632 0 0 0 .281-.066l-.004.002a.431.431 0 0 0 .178-.176l.001-.002a.55.55 0 0 0 .063-.255v-.011.001-.014a.592.592 0 0 0-.062-.266l.002.004a.403.403 0 0 0-.179-.177l-.002-.001a.653.653 0 0 0-.283-.063h-.023.001-.555v2.793h-.686v-3.33zm1.861 3.33-.759-1.485.725-.005.768 1.457v.031h-.734zm2.873-.872v-.005a.435.435 0 0 0-.029-.158l.001.003a.304.304 0 0 0-.095-.132h-.001a.828.828 0 0 0-.194-.119l-.005-.002a2.609 2.609 0 0 0-.311-.118l-.02-.005a3.94 3.94 0 0 1-.456-.175l.026.011a1.776 1.776 0 0 1-.361-.215l.004.003a.95.95 0 0 1-.239-.282l-.002-.005a.78.78 0 0 1-.088-.361v-.017.001-.011c0-.134.034-.26.093-.371l-.002.004a.873.873 0 0 1 .256-.293c.109-.083.24-.146.389-.19.151-.044.316-.066.496-.066.245 0 .46.044.642.133s.325.21.425.364c.102.154.153.33.153.528h-.681v-.012a.512.512 0 0 0-.063-.247l.001.003a.422.422 0 0 0-.18-.175l-.002-.001a.64.64 0 0 0-.283-.064h-.025.001-.023a.694.694 0 0 0-.278.057l.005-.002a.393.393 0 0 0-.178.143l-.001.001a.351.351 0 0 0-.059.196v.005c0 .056.013.108.041.153a.465.465 0 0 0 .127.127l.002.001c.056.04.125.077.208.112s.178.069.286.103c.182.055.341.116.478.185s.254.145.347.231c.094.086.163.182.211.29s.07.231.07.368l.001.032c0 .265-.129.5-.328.645l-.002.002c-.106.079-.234.139-.382.18s-.313.062-.496.062c-.165 0-.328-.022-.487-.065a1.49 1.49 0 0 1-.442-.202l.005.003a1.013 1.013 0 0 1-.309-.333l-.003-.005a.97.97 0 0 1-.116-.487h.688c0 .104.016.191.048.263.031.07.077.128.134.173l.001.001c.06.044.13.077.207.095l.004.001c.082.02.172.03.27.03h.025a.724.724 0 0 0 .272-.052l-.005.002a.362.362 0 0 0 .229-.336v-.005z"/></symbol><symbol 

id="support1" viewBox="0 0 28 32"><path d="m4.085 0 4.771 4.545-8.857-.004v22.053h23.149v-8.432l4.766 4.541V0H4.084zm18.854 17.629L9.411 4.74h13.528v12.889zm-4.2 5.739H3.663V8.536h1.066v13.828H18.74v1.005zM6.67 30.68l.562-1.155h.462l-.815 1.529v.892h-.42v-.891l-.814-1.529h.464l.562 1.156zm2.071-1.155h.099l.914 2.42h-.438l-.196-.566h-.937l-.195.566h-.437l.911-2.42h.279zm-.444 1.523h.709l-.354-1.027-.354 1.027zm2.925-.402-.041-.052-.011-.015a1.267 1.267 0 0 1-.142-.23l-.003-.008a.58.58 0 0 1-.051-.239v-.001c0-.126.026-.234.078-.325s.128-.162.218-.208l.003-.001a.71.71 0 0 1 .334-.075.64.64 0 0 1 .318.075.524.524 0 0 1 .237.673l.001-.003a.603.603 0 0 1-.116.173 1.198 1.198 0 0 1-.165.146l-.003.002-.168.123.479.565a.94.94 0 0 0 .104-.435v-.018.001h.346c0 .118-.012.229-.035.334a1.04 1.04 0 0 1-.179.403l.002-.003.354.419h-.463l-.141-.165a.933.933 0 0 1-.242.134l-.007.002c-.109.04-.235.063-.367.063h-.009a.916.916 0 0 1-.417-.088.664.664 0 0 1-.271-.24l-.002-.003a.656.656 0 0 1-.095-.343v-.012.001c0-.099.02-.185.061-.259a.805.805 0 0 1 .168-.21c.066-.059.14-.118.225-.178zm.199.244-.05.036a.62.62 0 0 0-.13.136l-.001.002a.407.407 0 0 0-.022.411l-.001-.002a.358.358 0 0 0 .133.137l.002.001c.06.032.13.051.205.051h.013-.001a.62.62 0 0 0 .392-.139l-.002.001-.538-.633zm.095-.442.148-.099a.536.536 0 0 0 .149-.135l.001-.001a.302.302 0 0 0 .045-.159v-.012.001a.24.24 0 0 0-.241-.233h-.014.001-.007a.245.245 0 0 0-.223.142l-.001.002a.34.34 0 0 0 .011.298l-.001-.002c.025.052.06.107.105.165l.027.035zm4.235.71h-.416a.76.76 0 0 1-.078.272l.002-.004a.386.386 0 0 1-.166.164l-.002.001a.621.621 0 0 1-.262.057l-.027-.001h.001-.014a.508.508 0 0 1-.24-.06l.003.001a.48.48 0 0 1-.172-.163l-.001-.002a.78.78 0 0 1-.098-.249l-.001-.005a1.599 1.599 0 0 1-.032-.32v-.013.001-.204c0-.129.012-.243.035-.343s.06-.185.108-.254a.47.47 0 0 1 .176-.155l.003-.001a.535.535 0 0 1 .236-.053h.014-.001c.116 0 .21.02.283.06s.126.095.163.17a.778.778 0 0 1 .073.267h.415a1.037 1.037 0 0 0-.139-.435l.003.005a.771.771 0 0 0-.305-.292l-.004-.002a1.01 1.01 0 0 0-.457-.107h-.033.002c-.152 0-.289.027-.411.08s-.225.129-.311.232a1.011 1.011 0 0 0-.197.353l-.002.007c-.046.14-.068.298-.068.472v.202c0 .174.022.331.067.472s.111.261.196.361a.878.878 0 0 0 .307.229.99.99 0 0 0 .404.08c.195 0 .361-.035.497-.106s.242-.168.317-.291a.962.962 0 0 0 .133-.424zm2.308-.356v-.133c0-.182-.024-.347-.073-.49a1.051 1.051 0 0 0-.206-.373l.001.001a.88.88 0 0 0-.312-.232l-.006-.002a1.006 1.006 0 0 0-.409-.082.983.983 0 0 0-.407.082.88.88 0 0 0-.318.234 1.101 1.101 0 0 0-.206.371c-.047.14-.074.301-.074.468v.023-.001.133c0 .183.024.347.074.492.048.143.119.266.21.372l-.001-.001c.09.102.196.18.317.235.123.053.259.08.408.08s.286-.027.409-.08a.873.873 0 0 0 .316-.235c.088-.102.157-.225.204-.37s.072-.309.072-.492zm-.417-.136v.136c0 .136-.014.255-.04.36a.783.783 0 0 1-.115.267l.002-.003a.503.503 0 0 1-.18.16l-.003.001a.54.54 0 0 1-.237.053h-.012.001-.011a.545.545 0 0 1-.239-.055l.003.001a.541.541 0 0 1-.185-.16l-.001-.002a.789.789 0 0 1-.115-.259l-.001-.005a1.405 1.405 0 0 1-.04-.341v-.02.001-.136c0-.135.014-.254.04-.357s.065-.191.115-.261a.5.5 0 0 1 .181-.158l.003-.001a.527.527 0 0 1 .237-.055h.01c.092 0 .174.018.248.054s.134.088.184.16a.72.72 0 0 1 .115.261c.027.104.04.223.04.357z"/></symbol><symbol 

id="twitter" viewBox="0 0 32 32"><path fill="#f4f4fd" d="M32 6.078c-1.1.494-2.376.858-3.712 1.029l-.068.007a6.56 6.56 0 0 0 2.873-3.58l.013-.046a12.858 12.858 0 0 1-4.076 1.574l-.084.014A6.56 6.56 0 0 0 15.598 9.56c0 .52.044 1.02.152 1.496A18.554 18.554 0 0 1 2.255 4.228l-.027-.034a6.496 6.496 0 0 0-.895 3.311 6.562 6.562 0 0 0 2.888 5.442l.023.015a6.465 6.465 0 0 1-2.997-.823l.033.017v.072a6.592 6.592 0 0 0 5.213 6.438l.043.008a6.408 6.408 0 0 1-1.669.216h-.054.003a5.842 5.842 0 0 1-1.279-.118l.037.006c.873 2.624 3.273 4.496 6.121 4.57h.009a13.098 13.098 0 0 1-8.12 2.798h-.015.001c-.538 0-1.054-.024-1.57-.09C2.826 27.902 6.287 29 10.004 29h.063-.003c12.072 0 18.672-10 18.672-18.668 0-.29-.01-.57-.024-.848a13.186 13.186 0 0 0 3.258-3.359l.03-.047z" style="fill:var(--color3, #f4f4fd)"/></symbol><symbol 

id="support6" viewBox="0 0 65 32"><path d="M32.979 13.724a1.875 1.875 0 0 1-.388-1.281v.006-1.848c0-.566.129-.997.386-1.292s.699-.442 1.325-.44c.589 0 1.006.125 1.253.376.269.32.4.711.37 1.105v.435h-1.052v-.44a2.152 2.152 0 0 0-.031-.431.417.417 0 0 0-.149-.255l-.001-.001a.605.605 0 0 0-.336-.101l-.048.002h.002a.642.642 0 0 0-.403.106l.002-.001a.49.49 0 0 0-.173.278l-.001.003a2.057 2.057 0 0 0-.042.421v.038-.002 2.243a1.137 1.137 0 0 0 .138.635l-.003-.006c.055.068.125.12.207.152l.003.001a.582.582 0 0 0 .272.035.567.567 0 0 0 .372-.102.449.449 0 0 0 .156-.27v-.003a2.5 2.5 0 0 0 .033-.449v-.455h1.053v.416a1.686 1.686 0 0 1-.368 1.165l.003-.003c-.241.275-.653.412-1.259.412s-1.063-.147-1.323-.451zm4.382.019c-.266-.288-.399-.707-.399-1.262v-1.944c0-.549.133-.964.399-1.247s.71-.422 1.334-.421c.619 0 1.061.141 1.327.421.266.282.401.698.401 1.247v1.944c0 .549-.135.97-.405 1.26s-.71.434-1.323.434-1.066-.147-1.334-.432zm1.824-.467c.095-.18.139-.378.126-.575V10.32l.002-.063c0-.183-.047-.356-.129-.506l.003.005a.497.497 0 0 0-.211-.154l-.003-.001a.568.568 0 0 0-.281-.033h.003a.592.592 0 0 0-.282.035l.004-.001a.52.52 0 0 0-.216.153l-.001.001c-.096.176-.14.37-.126.564v2.392c-.013.198.03.395.126.575.061.06.137.109.222.143a.733.733 0 0 0 .545-.002l-.005.002a.673.673 0 0 0 .222-.143v-.012zm2.503-4.351h1.133l.852 3.587.871-3.587h1.103l.111 5.178h-.815l-.087-3.598-.841 3.598h-.653l-.872-3.612-.081 3.612h-.824l.102-5.178zm5.341 0h1.765c1.016 0 1.525.49 1.525 1.47 0 .939-.536 1.408-1.606 1.407h-.601v2.301h-1.089l.006-5.178zm1.508 2.214a.84.84 0 0 0 .599-.164.833.833 0 0 0 .157-.588v.004l.001-.06c0-.146-.019-.287-.056-.422l.003.011a.37.37 0 0 0-.081-.142.437.437 0 0 0-.135-.103l-.003-.001a1.11 1.11 0 0 0-.427-.084l-.062.002h.003-.422v1.548h.422zm3.354-2.214h1.17l1.201 5.178h-1.016l-.237-1.194h-1.044l-.244 1.194h-1.03l1.201-5.178zm1 3.385-.408-2.173-.408 2.173h.815zm2.34-3.385h.763l1.459 2.954V8.925h.905v5.178h-.726l-1.469-3.083v3.083h-.934l.002-5.178zm5.245 3.204-1.213-3.197h1.022l.74 2.053.695-2.053h1l-1.199 3.197v1.974h-1.046v-1.974zm-25.815 4.238v.271h-.89v2.104h-.372v-2.104h-.894v-.271h2.155zm2.787 2.375h-.295a.124.124 0 0 1-.073-.023.125.125 0 0 1-.048-.054v-.001l-.257-.564h-1.233l-.257.564a.158.158 0 0 1-.038.064.135.135 0 0 1-.074.023h-.295l1.09-2.374h.379l1.103 2.365zm-1.804-.882h1.028l-.435-.966a1.524 1.524 0 0 1-.078-.212l-.003-.012-.041.126-.04.1-.431.964zm3.682.649c.068.003.137.003.205 0a1.3 1.3 0 0 0 .175-.028c.063-.013.115-.028.166-.046l-.009.003c.048-.017.096-.037.146-.058v-.534h-.441a.077.077 0 0 1-.027-.004h.001a.072.072 0 0 1-.027-.015.052.052 0 0 1-.017-.019.05.05 0 0 1-.005-.022v-.185h.845v.91a1.594 1.594 0 0 1-.448.191l-.011.003a2.26 2.26 0 0 1-.591.064h-.013c-.192 0-.377-.033-.548-.093l.012.004a1.337 1.337 0 0 1-.438-.249l.002.002a1.148 1.148 0 0 1-.279-.369l-.003-.007c-.063-.14-.1-.304-.1-.477v-.017.001-.015c0-.174.036-.339.101-.489l-.003.008a1.09 1.09 0 0 1 .282-.376c.124-.107.273-.191.435-.246.187-.061.385-.09.584-.088.102 0 .203.006.303.02.089.013.175.033.259.06.077.025.15.056.218.094s.131.079.19.124l-.104.147a.098.098 0 0 1-.035.032h-.001a.111.111 0 0 1-.049.013.15.15 0 0 1-.069-.02h.001a1.244 1.244 0 0 1-.112-.06l.006.003a.952.952 0 0 0-.14-.062l-.007-.002a1.27 1.27 0 0 0-.192-.051l-.008-.001a1.636 1.636 0 0 0-.262-.021h-.015.001-.013a1.28 1.28 0 0 0-.417.069l.009-.003a.941.941 0 0 0-.321.188l.001-.001a.833.833 0 0 0-.204.296 1.094 1.094 0 0 0 .003.799l-.003-.008a.863.863 0 0 0 .218.299c.09.081.198.145.318.188.139.041.285.057.431.047zm3.473-.038h1.19v.271h-1.554v-2.374h.372l-.009 2.104zm2.428.271h-.372v-2.374h.372v2.374zm1.385-2.364a.179.179 0 0 1 .057.043l1.592 1.79a.538.538 0 0 1 0-.086v.002-1.77h.324v2.385h-.2a.182.182 0 0 1-.07-.014h.001a.22.22 0 0 1-.059-.045l-1.59-1.789v1.847h-.312v-2.375h.194c.021 0 .042.004.061.011zm4.719-.011v.261H50.01v.784h1.069v.252H50.01v.81h1.32v.261h-1.704v-2.369h1.704zM12.285 1.702 28.83 5.756v14.205L12.285 15.91V1.702zM11.224.491v16.108l18.666 4.575V5.068L11.224.492z"/><path d="M21.228 28.651 2.56 24.072V7.966l18.668 4.576v16.109z" /><path d="m11.533 1.519 16.33 4.003-6.944 5.994L4.587 7.511l6.947-5.992zM11.224.491 2.56 7.966l18.668 4.577 8.662-7.475L11.224.491zm11.054 27.253 7.611-6.569-7.612-1.867v8.436z" /></symbol><symbol 

id="support5" viewBox="0 0 44 32"><path d="M3.334 26.694c.17.191.262.429.257.673.008.159-.023.319-.092.466s-.174.278-.307.384a1.847 1.847 0 0 1-1.163.31h.006H0v-4.266h1.993a1.836 1.836 0 0 1 1.111.287l-.007-.004c.129.097.231.22.298.358s.097.289.089.44a.919.919 0 0 1-.232.652 1.107 1.107 0 0 1-.599.333l-.007.001c.27.045.513.174.687.365zM.947 26.05h.852a.873.873 0 0 0 .541-.141.516.516 0 0 0 .145-.186l.001-.003a.447.447 0 0 0 .039-.185l-.002-.045v.002l.001-.036a.477.477 0 0 0-.041-.193l.001.003a.54.54 0 0 0-.141-.19l-.001-.001a.888.888 0 0 0-.562-.143h.003-.839v1.119zm1.477 1.637a.547.547 0 0 0 .156-.192l.001-.003a.475.475 0 0 0 .046-.205l-.001-.035v.002l.001-.03a.494.494 0 0 0-.049-.214l.001.003a.546.546 0 0 0-.159-.196l-.001-.001a.941.941 0 0 0-.522-.156l-.059.002h.003-.895v1.174h.905a.978.978 0 0 0 .572-.148zm4.984.842-1.109-1.667h-.417v1.667h-.953v-4.266h1.805a1.904 1.904 0 0 1 1.262.367l-.005-.004c.253.232.405.537.429.861s-.08.644-.295.904c-.223.23-.527.383-.861.434l1.181 1.704H7.408zM5.882 26.28h.78c.542 0 .813-.216.813-.646l.001-.035a.572.572 0 0 0-.046-.227l.001.004a.626.626 0 0 0-.155-.221.9.9 0 0 0-.617-.173h.003-.79l.01 1.298zm6.739 1.39H10.72l-.336.858h-1l1.746-4.218h1.081l1.738 4.218h-1l-.328-.858zm-.254-.646-.695-1.801-.694 1.8h1.389zm6.779 1.505H18.2l-2.123-2.901v2.901h-.945v-4.266h.945l2.122 2.918v-2.918h.947v4.266zm5.404-1.022a1.98 1.98 0 0 1-.844.748l-.012.005a3.04 3.04 0 0 1-1.331.269h-1.686v-4.266h1.686l.078-.001c.453 0 .884.097 1.272.271l-.02-.008c.362.165.661.424.856.744.195.347.296.73.296 1.119a2.276 2.276 0 0 1-.302 1.13l.006-.011zm-1.084-.102c.256-.263.416-.622.419-1.018v-.001a1.468 1.468 0 0 0-.419-1.018 1.747 1.747 0 0 0-1.19-.362h.005-.657v2.762h.657a1.76 1.76 0 0 0 1.19-.366l-.004.003zM13.213.534s12.221 4.153 11.962 10.163v10.166s-12.211-4.156-11.958-10.166L13.213.534zm22.849 17.949c2.308-1.43 4.977-2.317 7.764-2.576v-3.183c-3.211 1.114-5.935 3.134-7.764 5.758z" /><path  d="M34.675 19.442c1.888-3.425 5.164-6.067 9.151-7.384v-9.17S26.422 8.805 26.79 17.364v14.474s.776-.264 1.996-.761c0-.463 0-.929.056-1.398.36-3.974 2.458-7.656 5.834-10.237z" /><path d="M33.02 24.819c.103-1.095.318-2.101.637-3.06l-.028.096c-2.102 2.229-3.375 4.995-3.64 7.909-.025.275-.039.55-.046.833a49.032 49.032 0 0 0 3.636-1.726l-.288.139a13.192 13.192 0 0 1-.328-2.958c0-.434.02-.864.06-1.287l-.004.054zm.692.052a12.983 12.983 0 0 0 .231 3.88l-.015-.085c4.755-2.561 10.097-6.518 9.891-11.302v-.417c-3.397.343-6.575 1.68-9.047 3.806a12.764 12.764 0 0 0-1.056 4.067l-.004.051z" /></symbol><symbol 

id="astronaut" viewBox="0 0 33 32"><path fill="#4d5ae5" d="M31.512 4.196a.497.497 0 0 0-.396-.336h-.003l-1.772-.258-.793-1.606c-.166-.339-.721-.339-.887 0l-.793 1.606-1.772.258a.496.496 0 0 0-.275.844l1.282 1.25-.303 1.765a.495.495 0 0 0 .718.522l1.585-.833 1.585.833a.495.495 0 0 0 .718-.524v.003l-.302-1.765 1.283-1.25a.495.495 0 0 0 .124-.511l.001.003zm-2.284 1.231a.494.494 0 0 0-.142.438l.177 1.033-.928-.487a.487.487 0 0 0-.463.001l.003-.001-.928.487.177-1.033a.493.493 0 0 0-.142-.438l-.751-.732 1.038-.151a.494.494 0 0 0 .372-.271l.464-.94.465.94a.493.493 0 0 0 .373.271l1.037.151-.75.732zm-3.133 13.608h-.99v.99h.99v-.99zm0 1.979h-.99v.99h.99v-.99zM27.084 20.025h-.989v.989h.989v-.989zm-1.978 0h-.99v.989h.99v-.989zm-2.474 4.452h-.989v.989h.989v-.989zm0 1.979h-.989v.989h.989v-.989zm.99-.99h-.99v.99h.99v-.99z" style="fill:var(--color2, #4d5ae5)"/><path fill="#4d5ae5" d="M21.643 25.466h-.99v.99h.99v-.99zm-4.947-2.968h-.989v.99h.989v-.99zm0 1.979h-.989v.989h.989v-.989zm.989-.989h-.989v.989h.989v-.989zm-1.979 0h-.99v.989h.99v-.989zm-8.41-17.81h-.989v.989h.989v-.989zm0 1.979h-.989v.99h.989v-.989zm.99-.989h-.989v.99h.989v-.99zm-1.979 0h-.99v.99h.99v-.99z" style="fill:var(--color2, #4d5ae5)"/><path fill="#2e2f42" d="M24.779 13.133a1.651 1.651 0 0 0-1.094-.653l-.009-.001a1.636 1.636 0 0 0-1.246.33l.004-.003-1.161.89-1.76 1.315-1.259-.502c2.246-1.007 3.815-3.254 3.815-5.862 0-3.546-2.896-6.431-6.457-6.431S9.155 5.101 9.155 8.647c0 1.285.384 2.48 1.039 3.486l-2.568-.022c-.008 0-.014.004-.022.005a.51.51 0 0 0-.144.028c-.012.005-.024.007-.036.013l-.018.006-3 1.481-1.756.845a.425.425 0 0 0-.06.033l.001-.001a1.652 1.652 0 0 0-.551 2.138l-.004-.009c.204.398.552.691.979.825a1.64 1.64 0 0 0 1.287-.124l-.009.004 1.287-.685 2.1-1.085 1.259-.007-5.048 5.023-.001.001-1.241 1.236a1.522 1.522 0 0 0-.454 1.088v.005a1.544 1.544 0 0 0 1.548 1.543c.397 0 .793-.15 1.095-.45l1.219-1.214 1.614-1.206.836.832-2.877 2.865a1.523 1.523 0 0 0-.455 1.088v.004a1.546 1.546 0 0 0 1.55 1.544c.397 0 .793-.15 1.095-.45l3.23-3.215.001-.002.936-.928-.004-.003c.006-.006.014-.008.02-.014l4.792-5.248 3.219.458a.49.49 0 0 0 .247-.032l-.003.001c.016-.006.031-.014.046-.022.018-.009.036-.014.053-.025l2.981-1.979c.011-.007.017-.019.027-.027s.026-.013.037-.023l1.18-1.105a1.647 1.647 0 0 0 .193-2.195l.003.004zM3.831 16.482a.663.663 0 0 1-.518.048.665.665 0 0 1-.199-1.168l.002-.001 1.219-.586.293.857.123.36-.921.489zm3.244-1.695-1.436.742-.237-.693-.17-.498 1.88-.928-.037 1.376zM21.08 8.646c0 .852-.203 1.656-.556 2.374l-3.878-1.761a1.724 1.724 0 0 0-.726-1.284l-.005-.004 1.358-4.508c2.205.701 3.807 2.758 3.807 5.182zm-10.935 0c0-3.001 2.453-5.442 5.467-5.442.235 0 .464.02.691.049l-1.328 4.409c-.018 0-.035-.005-.053-.005-.957 0-1.733.774-1.736 1.731a1.736 1.736 0 0 0 1.736 1.731h.001c.644 0 1.201-.355 1.501-.876l3.583 1.628a5.464 5.464 0 0 1-4.393 2.217c-3.014 0-5.467-2.442-5.467-5.442zm5.525.743a.746.746 0 0 1-.748.742h-.002a.746.746 0 0 1-.746-.742c0-.409.335-.742.748-.742s.748.333.748.742zM4.141 23.324a.562.562 0 0 1-.793.001.55.55 0 0 1 0-.784l.892-.889.79.786-.889.886zm2.981 3.463a.562.562 0 0 1-.793 0 .55.55 0 0 1 0-.784l.893-.889.79.786-.89.886zm3.23-3.217-.002.001-1.637 1.632-.79-.786 1.636-1.629.001-.001c.037-.037.06-.082.083-.125.006-.013.019-.024.024-.037.015-.038.018-.079.023-.12.003-.023.013-.044.013-.067 0-.033-.012-.065-.019-.098-.006-.03-.006-.06-.017-.089a.5.5 0 0 0-.085-.128c-.009-.011-.013-.025-.023-.035l-.001-.002-1.491-1.484c-.016-.016-.036-.022-.054-.036a.53.53 0 0 0-.078-.052l-.003-.001a.395.395 0 0 0-.084-.029l-.003-.001a.436.436 0 0 0-.094-.018H7.73a.58.58 0 0 0-.072.005h.003a.507.507 0 0 0-.1.019l.003-.001a.459.459 0 0 0-.089.043l.002-.001c-.019.01-.039.014-.057.026l-1.645 1.228-.835-.832 2.225-2.214 4.044 3.978-.86.852zm6.324-6.509c-.014-.002-.028.004-.042.003l-.024-.001a.471.471 0 0 0-.085.008h.003a.46.46 0 0 0-.174.064l.002-.001a.48.48 0 0 0-.077.057c-.012.01-.026.015-.037.027l-4.358 4.773-4.014-3.949 2.628-2.614a.496.496 0 0 0-.35-.845h-.001l-2.058.012.025-1.491 2.879.025a6.427 6.427 0 0 0 4.618 1.949h.003c.406 0 .801-.042 1.187-.114.037.03.074.06.121.079l2.234.89.141.703.166.821-2.785-.396zm3.749.166-.291-1.445 1.342-1.002.878 1.165-1.929 1.281zm3.481-2.626-.777.728-.864-1.147.771-.591a.679.679 0 0 1 .503-.133.663.663 0 0 1 .366 1.142z" style="fill:var(--color1, #2e2f42)"/><path fill="#2e2f42" d="m14.471 17.2-1.988-1.979a.493.493 0 0 0-.698 0L9.798 17.2a.494.494 0 0 0 0 .702l1.987 1.978a.493.493 0 0 0 .698 0l1.988-1.978a.495.495 0 0 0 0-.702zm-2.336 1.632-1.286-1.281 1.286-1.28 1.287 1.28-1.287 1.281zm5.64-14.128-.239.96c.066.016 1.612.419 1.612 1.993h.99c0-1.871-1.545-2.751-2.362-2.954zm2.363 3.942h-.989v.99h.989v-.99z" style="fill:var(--color1, #2e2f42)"/></symbol>

<symbol id="icon-click-checkbox" viewBox="0 0 43 32">
<path d="M30.523 0.68c0.439-0.425 1.039-0.687 1.699-0.687 1.338 0 2.425 1.074 2.445 2.407l0 0.002c0.001 0.019 0.001 0.041 0.001 0.063 0 0.643-0.245 1.229-0.648 1.669l0.002-0.002-13.051 16.411c-0.45 0.485-1.090 0.788-1.802 0.788-0.33 0-0.645-0.065-0.932-0.183l0.016 0.006c-0.318-0.131-0.589-0.316-0.816-0.544l-0-0-8.656-8.701c-0.483-0.451-0.784-1.092-0.784-1.803 0-0.334 0.067-0.653 0.187-0.944l-0.006 0.016c0.376-0.912 1.258-1.542 2.287-1.542 0.012 0 0.023 0 0.035 0l-0.002-0c0.692 0.013 1.312 0.312 1.748 0.782l0.001 0.002 6.851 6.885 11.36-14.555c0.022-0.026 0.043-0.050 0.066-0.072l-0.002-0z"></path>
</symbol>
<symbol id="icon-email-frm" viewBox="0 0 30 32">
<path d="M22.154 7.385h-14.769c-1.015 0-1.836 0.831-1.836 1.846l-0.010 11.077c0 1.015 0.831 1.846 1.846 1.846h14.769c1.015 0 1.846-0.831 1.846-1.846v-11.077c0-1.015-0.831-1.846-1.846-1.846zM21.785 11.308l-6.526 4.079c-0.139 0.087-0.309 0.139-0.49 0.139s-0.351-0.052-0.494-0.141l0.004 0.002-6.526-4.079c-0.232-0.139-0.386-0.389-0.386-0.675 0-0.433 0.351-0.784 0.784-0.784 0.161 0 0.311 0.049 0.435 0.132l-0.003-0.002 6.185 3.867 6.185-3.868c0.122-0.081 0.271-0.13 0.432-0.13 0.433 0 0.784 0.351 0.784 0.784 0 0.286-0.153 0.536-0.382 0.673l-0.004 0.002z"></path>
</symbol>
<symbol id="icon-name-frm" viewBox="0 0 28 32">
<path d="M13.913 12.522c2.306 0 4.174-1.868 4.174-4.174s-1.868-4.174-4.174-4.174c-2.306 0-4.174 1.868-4.174 4.174s1.868 4.174 4.174 4.174zM13.913 14.609c-2.786 0-8.348 1.398-8.348 4.174v1.043c0 0.574 0.47 1.043 1.043 1.043h14.609c0.574 0 1.043-0.47 1.043-1.043v-1.043c0-2.776-5.562-4.174-8.348-4.174z"></path>
</symbol>
<symbol id="icon-phone-frm" viewBox="0 0 26 32">
<path d="M19.355 17.065l-2.262-0.258c-0.062-0.008-0.133-0.012-0.206-0.012-0.49 0-0.934 0.199-1.255 0.52l-1.638 1.638c-2.541-1.311-4.56-3.329-5.836-5.795l-0.035-0.075 1.649-1.648c0.321-0.321 0.519-0.764 0.519-1.253 0-0.073-0.004-0.144-0.013-0.215l0.001 0.008-0.258-2.245c-0.107-0.892-0.858-1.577-1.77-1.577-0.001 0-0.001 0-0.002 0h-1.541c-1.007 0-1.844 0.837-1.781 1.844 0.471 7.606 6.555 13.681 14.153 14.154 1.007 0.062 1.844-0.775 1.844-1.782v-1.541c0-0.003 0-0.006 0-0.010 0-0.905-0.682-1.651-1.56-1.753l-0.008-0.001z"></path>
</symbol>
<symbol id="icon-telegram" viewBox="0 0 32 32">
<path d="M32 2.667l-32 15 10.227 3.156 15.773-12.323-11.997 13.488 0.009 0.004-0.012-0.004v7.345l5.735-5.576 7.267 2.243 4.999-23.333z"></path>
</symbol>


</defs></svg>